<?xml version="1.0" standalone="no"?>
<!DOCTYPE svg PUBLIC "-//W3C//DTD SVG 20010904//EN"
 "http://www.w3.org/TR/2001/REC-SVG-20010904/DTD/svg10.dtd">
<svg version="1.0" xmlns="http://www.w3.org/2000/svg"
 width="330.000000pt" height="330.000000pt" viewBox="0 0 330.000000 330.000000"
 preserveAspectRatio="xMidYMid meet">
<metadata>
Created by potrace 1.11, written by Peter Selinger 2001-2013
</metadata>
<g transform="translate(0.000000,330.000000) scale(0.100000,-0.100000)"
fill="#000000" stroke="none">
<path d="M1050 3003 c-229 -33 -409 -104 -571 -224 -120 -88 -239 -230 -307
-365 -19 -37 -60 -149 -67 -184 -2 -8 -8 -35 -14 -60 -10 -47 -9 -337 2 -379
57 -218 183 -439 375 -661 113 -130 276 -292 403 -398 l86 -72 227 0 226 0 97
82 c54 45 106 89 115 98 17 15 11 23 -98 131 -543 536 -758 1056 -605 1459 47
124 143 252 251 335 118 91 283 154 408 157 43 1 44 1 21 13 -95 50 -407 89
-549 68z"/>
<path d="M1945 3000 c-107 -16 -130 -21 -201 -42 -41 -11 -74 -25 -74 -30 0
-5 4 -7 8 -4 16 10 178 -26 248 -55 187 -78 326 -210 414 -393 17 -37 33 -74
35 -84 34 -153 37 -172 32 -277 -12 -256 -125 -517 -346 -805 -118 -153 -197
-239 -349 -382 -70 -65 -72 -68 -54 -85 40 -38 100 -91 155 -136 l59 -47 223
0 222 0 54 42 c91 72 119 98 275 253 276 275 433 506 516 755 31 91 32 102 32
265 1 174 -5 219 -46 340 -80 235 -282 455 -523 570 -123 59 -192 81 -340 111
-48 9 -285 12 -340 4z"/>
<path d="M1605 2612 c-248 -22 -431 -228 -421 -475 9 -219 152 -386 368 -431
316 -66 598 217 537 538 -28 150 -141 282 -288 340 -47 18 -147 33 -196 28z"/>
<path d="M1042 484 c-13 -9 -13 -22 2 -107 27 -157 17 -147 140 -147 58 0 108
4 111 10 12 20 45 213 40 231 -7 22 -2 21 -159 23 -72 1 -125 -3 -134 -10z"/>
<path d="M1953 485 c-14 -10 -13 -23 3 -120 10 -59 25 -114 32 -122 16 -16
207 -19 217 -3 7 12 11 26 32 143 13 67 14 90 5 99 -16 16 -268 18 -289 3z"/>
</g>
</svg>
